<svg fill="#000000" xmlns="http://www.w3.org/2000/svg"  viewBox="0 0 50 50" width="50px" height="50px"><path d="M25,3C12.87,3,3,12.87,3,25s9.87,22,22,22s22-9.87,22-22S37.13,3,25,3z M37.73,9.58l0.86,0.69l-0.02,0.05l-0.83,2.09l2.08-0.83l0.04-0.02l0.83,0.98l-0.03,0.04l-2.58,3.69l-0.83-1.17l1.36-1.84l-2.26,0.92l-0.46-0.44l0.9-2.23l-1.77,1.38l-1.09-0.85l3.69-2.55L37.73,9.58z M29.16,8.02c0.23-1.12,1.19-1.81,2.32-1.83h0.07c0.1,0,0.21,0,0.32,0.02c0,0,0,0,0.01,0c0.05,0.01,0.11,0.02,0.17,0.03c0.44,0.08,0.84,0.27,1.16,0.52c0.67,0.53,1.03,1.36,0.86,2.19c-0.28,1.45-1.54,2.09-2.88,1.78C29.95,10.45,28.93,9.13,29.16,8.02z M23.7,5l0.96,0.01C24.77,5,24.89,5,25,5c0.21,0,0.42,0,0.63,0.02c0.63,0,1.62,0.35,1.62,1.45c0,0.74-0.62,1.09-0.95,1.15l1.5,1.93L26.07,9.3l-1.06-1.45V9.3H23.7V5z M15.47,7.42l0.18-0.1l3.88,2.9L18.1,10.8l-0.63-0.46l-1.36,0.8l0.16,0.74l-1.24,0.92l-0.54-4.81l-0.01-0.05L15.47,7.42z M11,10.72l0.18-0.2l0.02,0.02l0.74,0.65l-0.95,1.03l0.44,0.42l0.88-0.97l0.76,0.69l-0.88,0.94l1.2,1.06l-0.87,1.01l-3.14-2.78L11,10.72z M9.45,22.58l-0.76,0.18L8.6,24.35l0.64,0.3l0.03,1.54l-4.24-2.28L5,23.89l0.08-0.71l0.08-0.63l4.5-1.47L9.45,22.58z M6.39,17.68H6.38l0.07-0.15L6.69,17l0.24-0.54l0.02,0.01l2.8,1.3l0.74-1.29l0.94,0.48l-1.22,2.49L6.39,17.68z M25,40c-8,0-14.5-6.5-14.5-14.5S17,11,25,11s14.5,6.5,14.5,14.5S33,40,25,40z M38.82,17.56l3.92-1.59l1.08,2.56l-0.96,0.39l-0.56-1.31l-0.46,0.2l0.53,1.22l-0.94,0.39l-0.56-1.26l-0.48,0.23l0.57,1.31l-1.03,0.44L38.82,17.56z M42.72,26.14c-1.37,0-2.26-1.23-2.26-2.46s0.75-2.46,2.26-2.46c1.19,0,1.94,0.73,2.18,1.71c0.01,0.01,0.01,0.02,0,0.03c0.07,0.23,0.1,0.47,0.1,0.72c0,0.13-0.01,0.26-0.03,0.39C44.82,25.24,43.95,26.14,42.72,26.14z"/><path d="M17 26v10.36C13.79 34 11.67 30.25 11.51 26H17zM24 26v12.96c-1.41-.1-2.75-.42-4-.92V26H24zM24 12.04V23h-4V12.96C21.25 12.46 22.59 12.14 24 12.04zM17 14.64V23h-5.26C12.37 19.59 14.31 16.62 17 14.64zM25.98 6.45C25.99 6.71 25.81 7 25.4 7h-.41l-.02-1.03.39-.03C25.72 5.94 25.97 6.18 25.98 6.45zM32.78 8.69c-.12.6-.72 1-1.37.88-.66-.12-.98-.76-.86-1.36.1-.52.47-.84 1.03-.83.08 0 .16.01.24.02C32.48 7.52 32.89 8.09 32.78 8.69zM16.69 9.62L15.97 10.04 15.7 8.86zM43.8 23.68c0 .5-.4 1.13-1.05 1.13s-1.03-.55-1.03-1.13.36-1.13 1.03-1.13C43.41 22.55 43.8 23.17 43.8 23.68zM7.68 23.02L7.63 23.9 6.41 23.33zM26 12.04c-.16-.02-.33-.02-.5-.03C25.34 12 25.17 12 25 12v27c.17 0 .34 0 .5-.01.17-.01.34-.01.5-.03 6.98-.52 12.5-6.36 12.5-13.46C38.5 18.4 32.98 12.56 26 12.04zM32.75 14.88c.21 0 .37.16.37.37 0 .2-.17.37-.37.37-.21 0-.38-.17-.38-.37C32.37 15.04 32.54 14.88 32.75 14.88zM28.61 16.45v-.6h4.41v.6H28.61zM33.02 16.66v.6h-4.41v-.6H33.02zM31.78 14.88c.21 0 .38.16.38.37 0 .2-.17.37-.38.37-.21 0-.38-.17-.38-.37C31.4 15.04 31.57 14.88 31.78 14.88zM30.81 14.88c.21 0 .38.16.38.37 0 .2-.17.37-.38.37s-.38-.17-.38-.37C30.43 15.04 30.6 14.88 30.81 14.88zM29.85 14.88c.21 0 .38.16.38.37 0 .2-.17.37-.38.37-.21 0-.38-.17-.38-.37C29.47 15.04 29.64 14.88 29.85 14.88zM28.88 14.88c.21 0 .38.16.38.37 0 .2-.17.37-.38.37s-.38-.17-.38-.37C28.5 15.04 28.67 14.88 28.88 14.88zM26.14 20.76C26.05 20.65 26 20.5 26 20.4v-.05c0-.1.05-.25.14-.36.08-.11.2-.18.39-.18.14 0 .2.02.28.05.07.02.17.08.31.13.2.06.41.05.55-.07.15-.11.2-.28.2-.44l.01-.7c0-.31-.21-.49-.35-.6l-.42-.33v-.01c-.19-.14-.16-.26-.1-.37.04-.05.08-.08.13-.1h.04c.04 0 .09.01.15.05l.89.63c.11.08.18.23.18.36l-.01.86c0 .34.16.63.38.84.12.11.27.21.42.27-.15.05-.3.15-.42.27-.22.2-.38.49-.38.83l.01.87c0 .12-.08.28-.19.36l-.88.62c-.08.06-.14.06-.18.05-.05-.02-.1-.05-.14-.11-.06-.1-.09-.22.1-.36V22.9h.01l.42-.34c.14-.1.34-.28.34-.59l-.01-.71c0-.15-.05-.32-.2-.43-.14-.12-.35-.13-.55-.07-.14.05-.24.1-.31.13-.08.03-.14.05-.28.05C26.34 20.94 26.22 20.87 26.14 20.76zM28.8 26.03c.08.09.2.15.32.15h4.17c1.5 0 2.3 1.01 2.3 2.19 0 1.16-.83 2.25-2.29 2.25h-4.29c-.11 0-.22.05-.29.13-.07.08-.09.17-.09.27 0 .09.03.18.09.26.07.08.18.13.28.13h3.2c.69 0 1.28.7 1.28 1.37 0 .33-.09.65-.3.87-.2.23-.53.4-1.08.4h-1.92c-.07 0-.15.01-.23.07-.07.06-.13.16-.13.27.01.11.07.21.14.26.07.05.15.07.22.07h1.28c.18 0 .31.08.41.22.11.13.17.32.17.47 0 .18-.07.35-.18.46-.08.07-.18.12-.32.13 0-.08 0-.16-.05-.27-.05-.12-.22-.22-.35-.22h-.77c-.26 0-.56-.1-.77-.3-.22-.2-.37-.48-.37-.88 0-.37.15-.63.36-.82.21-.19.49-.29.7-.29h1.87c.09 0 .17-.02.25-.07.08-.05.16-.15.16-.28s-.08-.24-.16-.29c-.08-.05-.16-.06-.25-.06h-2.94c-1.13 0-1.76-.84-1.76-1.74 0-.8.66-1.75 1.66-1.75h4.38c.11 0 .24-.06.31-.15.07-.08.1-.19.1-.29 0-.1-.03-.2-.1-.29s-.19-.15-.31-.15h-4.46c-1.25 0-2.23-.96-2.23-2.41 0-1.22.95-2.46 2.36-2.46h4.04c.22 0 .42-.11.54-.26.12-.15.17-.33.18-.52 0-.18-.06-.37-.18-.52s-.32-.25-.54-.25H28.9v-.26c0-.15.08-.31.21-.43.13-.13.3-.2.41-.2h2.42c.09 0 .18-.02.27-.08.1-.07.18-.21.18-.39s-.05-.27-.18-.38c-.09-.06-.18-.08-.27-.08h-2.42c-.11 0-.28-.08-.41-.2s-.21-.28-.21-.44v-.15h2.95c.16 0 .31-.06.43-.15.11-.09.21-.24.21-.42v-.23h1.43c.38.01.7-.14.93-.36.49.33.99.71 1.39 1.22C36.69 19.76 37 20.5 37 21.59c0 2.05-1.84 3.7-3.61 3.7h-4.27c-.12 0-.24.06-.32.15-.07.09-.1.19-.1.3C28.7 25.84 28.73 25.95 28.8 26.03z"/></svg>