<svg xmlns="http://www.w3.org/2000/svg"  viewBox="0 0 40 40" width="80px" height="80px"><path fill="#98ccfd" d="M7.268,2.5h25.463c2.634,0,4.769,2.135,4.769,4.768v25.463c0,2.634-2.135,4.769-4.768,4.769H7.268 c-2.633,0-4.768-2.135-4.768-4.768V7.268C2.5,4.635,4.635,2.5,7.268,2.5z"/><path fill="#4788c7" d="M32.732,38H7.268C4.363,38,2,35.637,2,32.732V7.268C2,4.363,4.363,2,7.268,2h25.464 C35.637,2,38,4.363,38,7.268v25.464C38,35.637,35.637,38,32.732,38z M7.268,3C4.914,3,3,4.915,3,7.268v25.465 C3,35.085,4.914,37,7.268,37h25.465C35.086,37,37,35.085,37,32.731V7.268C37,4.915,35.085,3,32.731,3H7.268z"/><path fill="#b6dcfe" d="M24.94,16.665c1.55,1.107,3.999,1.758,6.049,1.758v-3.944c-0.388,0-0.775-0.04-1.154-0.121v3.104 c-2.05,0-4.499-0.652-6.049-1.758v8.047c0,4.026-3.265,7.289-7.293,7.289c-1.502,0-2.9-0.454-4.06-1.233 C13.758,31.16,15.604,32,17.647,32c4.028,0,7.293-3.264,7.293-7.289V16.665L24.94,16.665z M26.365,12.686 c-0.792-0.864-1.312-1.982-1.425-3.218V8.961h-1.094C24.121,10.531,25.061,11.873,26.365,12.686L26.365,12.686z M14.981,26.719 c-0.442-0.58-0.681-1.289-0.68-2.019c0-1.842,1.964-3.767,3.807-3.767c0.343,0,0.684,0.052,0.893,0.156v-4.031 c-0.264-0.052-0.65-0.075-1.036-0.067v3.138c-0.327-0.104-0.669-0.156-1.013-0.156c-1.843,0-3.807,1.925-3.807,3.767 C13.146,25.042,13.892,26.17,14.981,26.719z"/><path fill="#fff" d="M23.786,15.704c1.55,1.107,3.999,1.758,6.049,1.758v-3.104c-1.145-0.244-2.708-0.842-3.47-1.673	c-1.304-0.813-2.243-2.154-2.518-3.725h-2.874v15.75c-0.007,1.836-1.498,3.323-3.336,3.323c-1.084,0-2.046-0.516-2.656-1.316	c-1.088-0.549-1.835-1.677-1.835-2.978c0-1.842,1.964-3.767,3.807-3.767c0.353,0,0.693,0.055,1.013,0.156v-3.137	c-3.957,0.082-8.018,3.063-7.966,7.809c0.022,1.984,1.149,3.694,2.435,5.007c1.16,0.779,2.558,1.192,4.06,1.192	c4.028,0,7.293-3.222,7.293-7.248L23.786,15.704L23.786,15.704z"/><g><path fill="#dff0fe" d="M29.835,14.359v-0.84c-1.032,0.002-2.594-0.287-3.47-0.834 C27.14,13.534,28.711,14.119,29.835,14.359z M23.846,8.961c-0.027-0.15-0.046-0.301-0.06-0.453V8h-3.771v15.751 c-0.203,1.836-1.695,3.323-3.533,3.323c-0.54,0-1.049-0.128-1.5-0.356c0.61,0.799,1.572,1.316,2.656,1.316 c1.839,0,3.329-1.487,3.336-3.323V8.961H23.846z M17.965,16.992v-0.894c-0.331-0.045-0.666-0.068-1.001-0.068 c-4.029,0-7.901,3.078-7.901,7.811c0,2.524,1.42,4.659,3.37,5.967c-1.286-1.314-2.429-3.023-2.433-5.007 C9.989,20.095,14.008,17.074,17.965,16.992z"/></g></svg>