<svg xmlns="http://www.w3.org/2000/svg" width="563" height="164" fill="none" xmlns:v="https://vecta.io/nano"><g filter="url(#A)"><path fill="#b86161" d="M36 3h485v150H36z"/><path stroke="#000" stroke-width="5" stroke-linejoin="bevel" d="M36 3h485v150H36z"/></g><g filter="url(#B)"><path fill="#fac5c5" d="M7 49h549v59H7z"/><path stroke="#000" stroke-width="5" stroke-linejoin="bevel" d="M7 49h549v59H7z"/></g><path d="M103.144 96.576c-2.752 0-5.136-.48-7.152-1.44-1.984-.96-3.632-2.256-4.944-3.888a17.11 17.11 0 0 1-2.928-5.616c-.608-2.08-.912-4.224-.912-6.432 0-2.4.352-4.704 1.056-6.912.704-2.24 1.728-4.24 3.072-6 1.376-1.76 3.088-3.152 5.136-4.176s4.416-1.536 7.104-1.536c1.12 0 2.336.144 3.648.432a17.29 17.29 0 0 1 3.84 1.2c1.216.544 2.208 1.264 2.976 2.16l-2.496 2.784c-.928-1.024-2.176-1.808-3.744-2.352-1.536-.576-2.976-.864-4.32-.864-1.856 0-3.488.432-4.896 1.296-1.408.832-2.592 1.968-3.552 3.408s-1.696 3.056-2.208 4.848a21.06 21.06 0 0 0-.72 5.472c0 2.88.464 5.376 1.392 7.488.928 2.08 2.24 3.696 3.936 4.848 1.696 1.12 3.696 1.68 6 1.68 1.344 0 2.8-.192 4.368-.576s3.184-.992 4.848-1.824l1.488 2.736c-.928.672-2.048 1.248-3.36 1.728-1.28.48-2.592.848-3.936 1.104-1.344.288-2.576.432-3.696.432zm48.504-17.088h-16.992V96h-4.464V64.224c0-.032-.064-.288-.192-.768l-.288-1.488-.192-.912h5.136v15.168h16.992V61.056h4.464V96h-4.464V79.488zM174.8 61.056h20.976v3.312h-15.84v12.048h12.288v3.264h-12.288v13.008h15.84V96h-20.304V64.224l-.672-3.168zm51.326 0L238.222 96h-4.944l-4.032-12h-11.52l-4.08 12h-4.032l12.144-34.944h4.368zm-2.592 5.856l-4.704 13.824h9.312l-4.608-13.824zm29.968-5.856h10.464c2.304 0 4.336.368 6.096 1.104 1.792.704 3.184 1.824 4.176 3.36s1.488 3.568 1.488 6.096c0 2.336-.528 4.288-1.584 5.856s-2.464 2.752-4.224 3.552c-1.76.768-3.728 1.152-5.904 1.152h-5.328V96h-4.464V64.224l-.72-3.168zm5.184 3.312v14.544h5.232c2.208 0 3.952-.672 5.232-2.016s1.92-3.104 1.92-5.28c0-2.272-.608-4.048-1.824-5.328s-2.976-1.92-5.28-1.92h-5.28zm33.536-3.312h19.344v3.312h-14.208v12.048h11.28v3.264h-11.28V96h-4.464V64.224l-.672-3.168zm35.53 0h20.976v3.312h-15.84v12.048h12.288v3.264H332.89v13.008h15.84V96h-20.304V64.224l-.672-3.168zm52.094 35.52c-2.752 0-5.136-.48-7.152-1.44-1.984-.96-3.632-2.256-4.944-3.888a17.11 17.11 0 0 1-2.928-5.616c-.608-2.08-.912-4.224-.912-6.432 0-2.4.352-4.704 1.056-6.912.704-2.24 1.728-4.24 3.072-6 1.376-1.76 3.088-3.152 5.136-4.176s4.416-1.536 7.104-1.536c1.12 0 2.336.144 3.648.432a17.29 17.29 0 0 1 3.84 1.2c1.216.544 2.208 1.264 2.976 2.16l-2.496 2.784c-.928-1.024-2.176-1.808-3.744-2.352-1.536-.576-2.976-.864-4.32-.864-1.856 0-3.488.432-4.896 1.296-1.408.832-2.592 1.968-3.552 3.408s-1.696 3.056-2.208 4.848a21.06 21.06 0 0 0-.72 5.472c0 2.88.464 5.376 1.392 7.488.928 2.08 2.24 3.696 3.936 4.848 1.696 1.12 3.696 1.68 6 1.68 1.344 0 2.8-.192 4.368-.576s3.184-.992 4.848-1.824l1.488 2.736c-.928.672-2.048 1.248-3.36 1.728-1.28.48-2.592.848-3.936 1.104-1.344.288-2.576.432-3.696.432zm34.392-32.208H403.87v-3.312h25.44v3.312H418.8V96h-4.56V64.368zm52.924 15.12H450.17V96h-4.464V64.224c0-.032-.064-.288-.192-.768l-.288-1.488-.192-.912h5.136v15.168h16.992V61.056h4.464V96h-4.464V79.488z" fill="#000"/><defs><filter id="A" x="29.5" y=".5" width="498" height="163" filterUnits="userSpaceOnUse" color-interpolation-filters="sRGB"><feFlood flood-opacity="0" result="A"/><feColorMatrix in="SourceAlpha" values="0 0 0 0 0 0 0 0 0 0 0 0 0 0 0 0 0 0 127 0"/><feOffset dy="4"/><feGaussianBlur stdDeviation="2"/><feColorMatrix values="0 0 0 0 0 0 0 0 0 0 0 0 0 0 0 0 0 0 0.25 0"/><feBlend in2="A"/><feBlend in="SourceGraphic"/></filter><filter id="B" x=".5" y="46.5" width="562" height="72" filterUnits="userSpaceOnUse" color-interpolation-filters="sRGB"><feFlood flood-opacity="0" result="A"/><feColorMatrix in="SourceAlpha" values="0 0 0 0 0 0 0 0 0 0 0 0 0 0 0 0 0 0 127 0"/><feOffset dy="4"/><feGaussianBlur stdDeviation="2"/><feColorMatrix values="0 0 0 0 0 0 0 0 0 0 0 0 0 0 0 0 0 0 0.25 0"/><feBlend in2="A"/><feBlend in="SourceGraphic"/></filter></defs></svg>